<svg xmlns="http://www.w3.org/2000/svg" width="24.214" height="33.898" viewBox="0 0 24.214 33.898">
  <g id="Reference_Details" data-name="Reference Details" transform="translate(-6.75 -2.25)">
    <path id="Path_42161" data-name="Path 42161" d="M20.014,33.727H9.171V4.671h9.685v7.264a2.429,2.429,0,0,0,2.421,2.421h7.264V25.2h2.421V11.935a1.1,1.1,0,0,0-.363-.847L22.126,2.614a1.1,1.1,0,0,0-.848-.364H9.171A2.429,2.429,0,0,0,6.75,4.671V33.727a2.429,2.429,0,0,0,2.421,2.421H20.014ZM21.278,5.156l6.78,6.78h-6.78Z" fill="#053652"/>
    <g id="Group_1906" data-name="Group 1906" transform="translate(21.091 26.521)">
      <path id="Path_42736" data-name="Path 42736" d="M7.208,16.136H6.891a3.16,3.16,0,0,0-2.343.918l-.087.1v3.018H5.947V18.462l.2-.226.091-.106a4.009,4.009,0,0,1,1.717-1.042,2.4,2.4,0,0,1-.747-.951Z" transform="translate(-4.46 -11.98)" fill="#053652"/>
      <path id="Path_42737" data-name="Path 42737" d="M25.29,17.025a3.16,3.16,0,0,0-2.343-.918,3.815,3.815,0,0,0-.4.022,2.4,2.4,0,0,1-.729.893,3.976,3.976,0,0,1,1.822,1.093l.091.1.2.226v1.717h1.436V17.127Z" transform="translate(-15.493 -11.961)" fill="#053652"/>
      <path id="Path_42738" data-name="Path 42738" d="M8.5,9.016h.113A2.351,2.351,0,0,1,9.745,6.724,1.491,1.491,0,1,0,8.5,9.031Z" transform="translate(-6.079 -5.571)" fill="#053652"/>
      <path id="Path_42739" data-name="Path 42739" d="M13.432,20.294a3.532,3.532,0,0,0-2.591.984l-.091.1v2.307a.572.572,0,0,0,.583.561h4.188a.572.572,0,0,0,.583-.561v-2.3l-.087-.109A3.491,3.491,0,0,0,13.432,20.294Z" transform="translate(-8.458 -14.623)" fill="#053652"/>
      <path id="Path_42740" data-name="Path 42740" d="M14.895,12.248a1.625,1.625,0,0,0,1.458-.926,1.338,1.338,0,0,1-1.046-2l.128-.222a1.611,1.611,0,0,0-.539-.1,1.629,1.629,0,1,0,0,3.255Z" transform="translate(-10.007 -7.443)" fill="#053652"/>
      <path id="Path_42744" data-name="Path 42744" d="M25.035,10.5h1.035v1.035H27.1v1.035H26.069V13.6H25.035V12.569H24V11.535h1.035Z" transform="translate(-17.905 -10.5)" fill="#053652"/>
    </g>
    <path id="Path_42811" data-name="Path 42811" d="M9.667,10.5c-1.2,0-2.167.448-2.167,1s.97,1,2.167,1h8.667c1.2,0,2.167-.448,2.167-1s-.97-1-2.167-1Z" transform="translate(4.25 5.797)" fill="#053652"/>
    <path id="Path_42812" data-name="Path 42812" d="M9.667,10.5c-1.2,0-2.167.448-2.167,1s.97,1,2.167,1h8.667c1.2,0,2.167-.448,2.167-1s-.97-1-2.167-1Z" transform="translate(4.25 9.797)" fill="#053652"/>
    <path id="Path_42813" data-name="Path 42813" d="M9.667,10.5c-1.2,0-2.167.448-2.167,1s.97,1,2.167,1h8.667c1.2,0,2.167-.448,2.167-1s-.97-1-2.167-1Z" transform="translate(4.25 13.797)" fill="#053652"/>
    <path id="Path_42814" data-name="Path 42814" d="M8.667,10.5a1.093,1.093,0,0,0-1.167,1,1.093,1.093,0,0,0,1.167,1h4.667a1.093,1.093,0,0,0,1.167-1,1.093,1.093,0,0,0-1.167-1Z" transform="translate(2.25 18.797)" fill="#053652"/>
    <path id="Path_42815" data-name="Path 42815" d="M8.667,10.5a1.093,1.093,0,0,0-1.167,1,1.093,1.093,0,0,0,1.167,1h4.667a1.093,1.093,0,0,0,1.167-1,1.093,1.093,0,0,0-1.167-1Z" transform="translate(2.25 -0.203)" fill="#053652"/>
  </g>
</svg>
