<svg xmlns="http://www.w3.org/2000/svg" width="32" height="31.061" viewBox="0 0 32 31.061">
  <g id="Bulk_Registration" data-name="Bulk Registration" transform="translate(14213 -19994.215)">
    <path id="Path_42818" data-name="Path 42818" d="M22.76,11.28A4.76,4.76,0,1,1,18,6.58a4.73,4.73,0,0,1,4.76,4.7Z" transform="translate(-14215 19991.676)" fill="#053652"/>
    <path id="Path_42819" data-name="Path 42819" d="M10.78,11.75h.48v-.43a6.7,6.7,0,0,1,3.75-6,4.62,4.62,0,1,0-4.21,6.46Z" transform="translate(-14215 19991.676)" fill="#053652"/>
    <path id="Path_42820" data-name="Path 42820" d="M24.76,11.28v.43h.48A4.58,4.58,0,1,0,21,5.29a6.7,6.7,0,0,1,3.76,5.99Z" transform="translate(-14215 19991.676)" fill="#053652"/>
    <path id="Path_42821" data-name="Path 42821" d="M22.29,16.45a21.45,21.45,0,0,1,5.71,2,2.71,2.71,0,0,1,.68.53H34V15.56a.72.72,0,0,0-.38-.64,18,18,0,0,0-8.4-2.05h-.66a6.66,6.66,0,0,1-2.27,3.58Z" transform="translate(-14215 19991.676)" fill="#053652"/>
    <path id="Path_42822" data-name="Path 42822" d="M6.53,20.92A2.76,2.76,0,0,1,8,18.47a21.45,21.45,0,0,1,5.71-2,6.66,6.66,0,0,1-2.27-3.55h-.66a18,18,0,0,0-8.4,2.05.72.72,0,0,0-.38.64V22H6.53Z" transform="translate(-14215 19991.676)" fill="#053652"/>
    <path id="Path_42824" data-name="Path 42824" d="M32.81,21.26H25.94v-1a1,1,0,1,0-2,0v1H22V18.43A20.17,20.17,0,0,0,18,18a19.27,19.27,0,0,0-9.06,2.22.76.76,0,0,0-.41.68v5.61h7.11V32.6a1,1,0,0,0,1,1H32.81a1,1,0,0,0,1-1V22.26a1,1,0,0,0-1-1Zm-1,10.36H17.64V23.26h6.3v.91a1,1,0,0,0,2,0v-.91h5.87Z" transform="translate(-14215 19991.676)" fill="#053652"/>
    <path id="upload" d="M8.083,9.806c0-.019,0-.038,0-.057A1.858,1.858,0,0,0,6.243,7.875,1.838,1.838,0,0,0,4.581,8.943a.945.945,0,0,0-.427-.1.956.956,0,0,0-.937.8,1.452,1.452,0,0,0,.459,2.82H5.309V11.189H4.541L5.819,9.856,7.1,11.188H6.329v1.275H8.086a1.328,1.328,0,0,0,0-2.656Z" transform="translate(-14195.96 20009.602)" fill="#053652"/>
  </g>
</svg>
