<svg xmlns="http://www.w3.org/2000/svg" width="33.969" height="33.969" viewBox="0 0 33.969 33.969">
  <g id="Customer_Support" data-name="Customer Support" transform="translate(14079.197 -20410.421)">
    <path id="bx-support" d="M19.984,3A17,17,0,0,0,3,19.984V27.02a3.285,3.285,0,0,0,3.4,3.155H8.1a1.7,1.7,0,0,0,1.7-1.7V19.742a1.7,1.7,0,0,0-1.7-1.7H6.553a13.568,13.568,0,0,1,26.862,0H31.873a1.7,1.7,0,0,0-1.7,1.7V30.175a3.4,3.4,0,0,1-3.4,3.4h-3.4v-1.7H16.587v5.1H26.778a6.8,6.8,0,0,0,6.794-6.794,3.285,3.285,0,0,0,3.4-3.153V19.984A17,17,0,0,0,19.984,3Z" transform="translate(-14082.197 20407.422)" fill="#053652"/>
    <g id="user-filled" transform="translate(-14069.227 20423.152)">
      <path id="Path_42754" data-name="Path 42754" d="M6.75,26.328H16.88V23.8a3.55,3.55,0,0,0-3.545-3.545H10.3A3.55,3.55,0,0,0,6.75,23.8Z" transform="translate(-6.75 -12.146)" fill="#053652"/>
      <path id="Path_42755" data-name="Path 42755" d="M10.125,5.8A3.545,3.545,0,1,0,13.67,2.25,3.545,3.545,0,0,0,10.125,5.8Z" transform="translate(-8.606 -2.25)" fill="#053652"/>
    </g>
    <path id="bxs-message-rounded-dots" d="M7.065,3C4.824,3,3,4.459,3,6.252A3.174,3.174,0,0,0,5.033,9.071v2.06L7.2,9.5c2.178-.059,3.927-1.494,3.927-3.251C11.131,4.459,9.307,3,7.065,3ZM6.049,6.659a.61.61,0,1,1,.61-.61A.61.61,0,0,1,6.049,6.659Zm2.033,0a.61.61,0,1,1,.61-.61A.61.61,0,0,1,8.082,6.659Z" transform="translate(-14062.76 20416.273)" fill="#053652"/>
  </g>
</svg>
