<svg xmlns="http://www.w3.org/2000/svg" width="33.748" height="27.611" viewBox="0 0 33.748 27.611">
  <g id="Facilitator_Evaluator" data-name="Facilitator/ Evaluator" transform="translate(-1.5 -4.5)">
    <path id="Path_42795" data-name="Path 42795" d="M21.034,10.5A1.534,1.534,0,0,0,19.5,12.034V24.306a1.534,1.534,0,0,0,1.534,1.534H27.17A1.534,1.534,0,0,0,28.7,24.306V12.034A1.534,1.534,0,0,0,27.17,10.5Zm4.6,3.068H22.568v9.2h3.068Z" transform="translate(0.408 0.136)" fill="#053652" fill-rule="evenodd"/>
    <path id="Path_42796" data-name="Path 42796" d="M9.034,10.5a1.534,1.534,0,1,0,0,3.068H15.17a1.534,1.534,0,1,0,0-3.068Z" transform="translate(0.136 0.136)" fill="#053652"/>
    <path id="Path_42797" data-name="Path 42797" d="M9.034,16.5a1.534,1.534,0,0,0,0,3.068H15.17a1.534,1.534,0,1,0,0-3.068Z" transform="translate(0.136 0.272)" fill="#053652"/>
    <path id="Path_42798" data-name="Path 42798" d="M7.5,24.034A1.534,1.534,0,0,1,9.034,22.5H15.17a1.534,1.534,0,1,1,0,3.068H9.034A1.534,1.534,0,0,1,7.5,24.034Z" transform="translate(0.136 0.408)" fill="#053652"/>
    <path id="Path_42799" data-name="Path 42799" d="M6.1,4.5A4.6,4.6,0,0,0,1.5,9.1V27.51a4.6,4.6,0,0,0,4.6,4.6H30.646a4.6,4.6,0,0,0,4.6-4.6V9.1a4.6,4.6,0,0,0-4.6-4.6ZM30.646,7.568H6.1A1.534,1.534,0,0,0,4.568,9.1V27.51A1.534,1.534,0,0,0,6.1,29.044H30.646A1.534,1.534,0,0,0,32.18,27.51V9.1A1.534,1.534,0,0,0,30.646,7.568Z" transform="translate(0 0)" fill="#053652" fill-rule="evenodd"/>
  </g>
</svg>
