<svg xmlns="http://www.w3.org/2000/svg" width="36.037" height="31.85" viewBox="0 0 36.037 31.85">
  <path id="homeassistant" d="M18.007,2.093a1.057,1.057,0,0,0-.748.315L.243,19.666A.849.849,0,0,0,.85,21.111H4.009V33.235a.7.7,0,0,0,.706.706H16.649v-5.53l-4.582-4.588a3.639,3.639,0,1,1,1.927-1.93l2.655,2.655V16.477a3.637,3.637,0,1,1,2.727,0v8.071l2.652-2.655a3.642,3.642,0,1,1,1.929,1.93l-4.579,4.588v5.53H31.311a.706.706,0,0,0,.706-.706V21.11h3.171a.85.85,0,0,0,.607-1.444L32.017,15.8V9.715A.709.709,0,0,0,31.311,9H28.36a.709.709,0,0,0-.707.711v1.657L18.769,2.406a1.06,1.06,0,0,0-.763-.315Zm.006,9.55a1.458,1.458,0,1,0,1.455,1.46,1.456,1.456,0,0,0-1.455-1.46Zm-7.367,7.375a1.453,1.453,0,1,0,1.028.425,1.453,1.453,0,0,0-1.028-.425Zm14.733,0a1.453,1.453,0,1,0,1.03.425,1.456,1.456,0,0,0-1.03-.425Z" transform="translate(0 -2.092)" fill="#122c54"/>
</svg>
