<svg xmlns="http://www.w3.org/2000/svg" width="35.419" height="32.225" viewBox="0 0 35.419 32.225">
  <g id="KYC_Verification" data-name="KYC Verification" transform="translate(13288.314 -14825.594)">
    <path id="Path_42624" data-name="Path 42624" d="M104.012,26.25H73.6A2.508,2.508,0,0,0,71.1,28.759V50.626A2.509,2.509,0,0,0,73.6,53.132h10.29l-.875,3.953H81.447a.695.695,0,0,0,0,1.389H96.17a.695.695,0,0,0,0-1.389H94.6l-.875-3.947h10.29a2.509,2.509,0,0,0,2.506-2.511V28.759a2.508,2.508,0,0,0-2.506-2.509ZM73.6,27.639h30.407a1.118,1.118,0,0,1,1.117,1.12V47.039H72.488V28.759a1.118,1.118,0,0,1,1.117-1.12Zm19.57,29.446H84.442l.876-3.947H92.3Zm10.837-5.336H73.6a1.118,1.118,0,0,1-1.117-1.122v-2.2h32.64v2.2a1.118,1.118,0,0,1-1.117,1.12Z" transform="translate(-13359.413 14799.344)" fill="#053652"/>
    <g id="video-chat" transform="translate(-13280.855 14823.486)">
      <path id="Path_42846" data-name="Path 42846" d="M9,13.5h5.786v1.286H9Z" transform="translate(-2.893 -2.893)" fill="#053652"/>
      <path id="Path_42847" data-name="Path 42847" d="M9,19.125h3.214v1.286H9Z" transform="translate(-2.893 -5.304)" fill="#053652"/>
      <path id="Path_42848" data-name="Path 42848" d="M14.464,19.607H3.536A1.287,1.287,0,0,1,2.25,18.321V8.036A1.287,1.287,0,0,1,3.536,6.75H14.464A1.287,1.287,0,0,1,15.75,8.036v2.608l3.483-2.488a.643.643,0,0,1,1.017.523v9a.643.643,0,0,1-1.017.523L15.75,15.714v2.607A1.287,1.287,0,0,1,14.464,19.607ZM3.536,8.036V18.322H14.464V14.464a.643.643,0,0,1,1.017-.523l3.483,2.488v-6.5l-3.483,2.488a.643.643,0,0,1-1.017-.523V8.036Z" fill="#053652"/>
    </g>
  </g>
</svg>
