<svg xmlns="http://www.w3.org/2000/svg" width="28.98" height="24.58" viewBox="0 0 28.98 24.58">
  <path id="Product_Configuration" data-name="Product Configuration" d="M21.98,2.734l-.408,1.958a4.742,4.742,0,0,0-1.2.356L18.965,3.627l-1.6,1.3L18.46,6.6a4.729,4.729,0,0,0-.595,1.1l-2-.009-.215,2.05,1.958.408a4.721,4.721,0,0,0,.356,1.2l-1.421,1.41,1.3,1.6,1.674-1.1a4.733,4.733,0,0,0,1.1.6l-.009,2,2.05.215.407-1.958a4.757,4.757,0,0,0,1.2-.354l1.408,1.421,1.6-1.3L26.17,12.2a4.729,4.729,0,0,0,.6-1.1l2,.007.215-2.05-1.958-.4a4.759,4.759,0,0,0-.354-1.2l1.421-1.406-1.3-1.6-1.672,1.1a4.745,4.745,0,0,0-1.1-.6l.009-2L21.98,2.733Zm.34,4.761c.064,0,.13,0,.2.009a1.924,1.924,0,1,1-.195-.009ZM7.613,7.663l-.275,2.722a6.5,6.5,0,0,0-1.582.654L3.639,9.308,1.645,11.3l1.732,2.12A6.484,6.484,0,0,0,2.723,15L0,15.275V18.1l2.722.275a6.473,6.473,0,0,0,.654,1.579l-1.732,2.12,1.993,1.993,2.12-1.732a6.474,6.474,0,0,0,1.579.654l.275,2.722h2.82l.273-2.722a6.479,6.479,0,0,0,1.582-.654l2.12,1.732L16.4,22.069l-1.732-2.118a6.484,6.484,0,0,0,.654-1.582l2.722-.275v-2.82L15.323,15a6.477,6.477,0,0,0-.654-1.583L16.4,11.3,14.407,9.308l-2.118,1.732a6.5,6.5,0,0,0-1.583-.654l-.273-2.722H7.613Zm1.41,6.414a2.608,2.608,0,1,1-2.608,2.608A2.608,2.608,0,0,1,9.023,14.077Zm11.971,3.483-.287,1.431a3.248,3.248,0,0,0-.842.26l-.99-1.039-1.125.949.77,1.224a3.5,3.5,0,0,0-.419.8l-1.4-.007-.152,1.5,1.376.3a3.566,3.566,0,0,0,.25.877l-1,1.03.911,1.171,1.177-.8a3.284,3.284,0,0,0,.772.436l-.006,1.464,1.44.157.286-1.433a3.214,3.214,0,0,0,.842-.258l.99,1.039,1.126-.949-.772-1.224a3.5,3.5,0,0,0,.419-.8l1.406.006.15-1.5-1.376-.3a3.55,3.55,0,0,0-.25-.878l1-1.029-.911-1.173-1.175.8a3.289,3.289,0,0,0-.774-.436l.007-1.462-1.441-.157Zm.238,3.481a1.337,1.337,0,0,1,.138.007,1.381,1.381,0,0,1,1.191,1.533,1.353,1.353,0,0,1-1.472,1.241A1.382,1.382,0,0,1,19.9,22.29,1.36,1.36,0,0,1,21.231,21.041Z" transform="translate(0 -2.732)" fill="#053652"/>
</svg>
