<svg xmlns="http://www.w3.org/2000/svg" width="23.035" height="23.035" viewBox="0 0 23.035 23.035">
  <g id="product" transform="translate(-4.5 -4.5)">
    <path id="Path_42831" data-name="Path 42831" d="M9,20.25h5.759v1.92H9Z" transform="translate(-0.661 -2.313)" fill="#053652"/>
    <path id="Path_42832" data-name="Path 42832" d="M9,24.75h9.6v1.92H9Z" transform="translate(-0.661 -2.974)" fill="#053652"/>
    <path id="Path_42833" data-name="Path 42833" d="M25.616,4.5H6.42A1.921,1.921,0,0,0,4.5,6.42v19.2a1.921,1.921,0,0,0,1.92,1.92h19.2a1.921,1.921,0,0,0,1.92-1.92V6.42a1.921,1.921,0,0,0-1.92-1.92ZM17.937,6.42v3.839H14.1V6.42ZM6.42,25.616V6.42h5.759v5.759h7.678V6.42h5.759v19.2Z" fill="#053652"/>
  </g>
</svg>
