<svg xmlns="http://www.w3.org/2000/svg" width="31.046" height="32.467" viewBox="0 0 31.046 32.467">
  <g id="Role_Management" data-name="Role Management" transform="translate(14148 -20544.246)">
    <path id="Path_42808" data-name="Path 42808" d="M18.47,2.972a5.168,5.168,0,0,0-6.982,1.995L9.66,8.125,8,7.211c0-.166-.166-.166-.249-.166A.745.745,0,0,0,7,7.793v5.984a.756.756,0,0,0,.332.665.5.5,0,0,0,.332.083c.166,0,.249,0,.332-.083l5.236-2.992a.675.675,0,0,0,.332-.665,1.026,1.026,0,0,0-.332-.665L11.156,8.957,12.984,5.8A3.841,3.841,0,0,1,14.4,4.385,3.443,3.443,0,0,1,19.052,5.8a.92.92,0,0,0,1.164.332.92.92,0,0,0,.332-1.164A5.938,5.938,0,0,0,18.47,2.972Z" transform="translate(-14151.212 20541.902)" fill="#053652"/>
    <path id="Path_42809" data-name="Path 42809" d="M30.816,19.091l-2.494-4.405,1.912-1.081a.675.675,0,0,0,.332-.665,1.026,1.026,0,0,0-.332-.665L25.081,9.283a.5.5,0,0,0-.332-.083A.745.745,0,0,0,24,9.948v5.984a1.026,1.026,0,0,0,.332.665.5.5,0,0,0,.332.083c.166,0,.249-.083.332-.083l1.829-1.081,2.494,4.405a3.385,3.385,0,0,1,0,3.325,3.075,3.075,0,0,1-2.66,1.579h-.748a.831.831,0,1,0,0,1.662h.748a4.633,4.633,0,0,0,4.156-2.494,5.131,5.131,0,0,0,0-4.9Z" transform="translate(-14148.394 20547.229)" fill="#053652"/>
    <path id="Path_42810" data-name="Path 42810" d="M18.543,26.992,13.39,24a.5.5,0,0,0-.332-.083.745.745,0,0,0-.748.748v2.161H8.236A3.391,3.391,0,0,1,5.244,25.08a3.756,3.756,0,0,1,0-3.74.856.856,0,1,0-1.5-.831,5.251,5.251,0,0,0,0,5.4,5.134,5.134,0,0,0,4.488,2.577h3.99v2.161a1.026,1.026,0,0,0,.332.665.706.706,0,0,0,.665,0l5.236-2.992a.675.675,0,0,0,.332-.665A.574.574,0,0,0,18.543,26.992Z" transform="translate(-14151 20545.316)" fill="#053652"/>
    <path id="cog" d="M8.812,4.458a3.7,3.7,0,0,1,0,1.206L10.087,6.89a.172.172,0,0,1,.035.153.544.544,0,0,1-.084.213L9.356,8.314a.56.56,0,0,1-.168.173.245.245,0,0,1-.158.054L7.4,8.056a3.925,3.925,0,0,1-.969.544L6.044,9.965a.219.219,0,0,1-.129.109.591.591,0,0,1-.247.049H4.314a.557.557,0,0,1-.242-.049.217.217,0,0,1-.123-.109l-.356-1.4a4.067,4.067,0,0,1-.86-.514l-1.621.494a.258.258,0,0,1-.168-.054.555.555,0,0,1-.168-.174L.092,7.256a.542.542,0,0,1-.084-.213A.172.172,0,0,1,.043,6.89L1.318,5.664a3.7,3.7,0,0,1,0-1.206L.043,3.232a.172.172,0,0,1-.035-.153.544.544,0,0,1,.084-.213L.774,1.808a.56.56,0,0,1,.168-.173.258.258,0,0,1,.168-.054l1.621.494A3.546,3.546,0,0,1,3.7,1.522L4.086.157A.219.219,0,0,1,4.215.048.591.591,0,0,1,4.462,0H5.816a.591.591,0,0,1,.247.049q.109.049.119.109l.356,1.4a3.764,3.764,0,0,1,.86.514L9.03,1.581a.241.241,0,0,1,.163.054.58.58,0,0,1,.163.174l.682,1.058a.542.542,0,0,1,.084.213.171.171,0,0,1-.035.153ZM5.065,3.163a1.822,1.822,0,0,0-1.344.558,1.842,1.842,0,0,0-.554,1.344,1.89,1.89,0,0,0,1.9,1.893,1.89,1.89,0,0,0,1.9-1.893,1.842,1.842,0,0,0-.554-1.344A1.822,1.822,0,0,0,5.065,3.163Z" transform="translate(-14137.788 20558.068)" fill="#053652"/>
    <path id="user-avatar-filled" d="M5.61,2.25A3.36,3.36,0,1,0,8.97,5.61,3.36,3.36,0,0,0,5.61,2.25Zm0,1.2a1.078,1.078,0,1,1-.764.316A1.08,1.08,0,0,1,5.61,3.45Zm1.92,4.3a2.863,2.863,0,0,1-3.84,0V7.612A1.248,1.248,0,0,1,4.89,6.33H6.33A1.25,1.25,0,0,1,7.53,7.6Z" transform="translate(-14149.971 20555.359)" fill="#053652"/>
    <path id="user-avatar-filled-2" data-name="user-avatar-filled" d="M5.61,2.25A3.36,3.36,0,1,0,8.97,5.61,3.36,3.36,0,0,0,5.61,2.25Zm0,1.2a1.078,1.078,0,1,1-.764.316A1.08,1.08,0,0,1,5.61,3.45Zm1.92,4.3a2.863,2.863,0,0,1-3.84,0V7.612A1.248,1.248,0,0,1,4.89,6.33H6.33A1.25,1.25,0,0,1,7.53,7.6Z" transform="translate(-14133.272 20567.225)" fill="#053652"/>
    <path id="user-avatar-filled-3" data-name="user-avatar-filled" d="M5.61,2.25A3.36,3.36,0,1,0,8.97,5.61,3.36,3.36,0,0,0,5.61,2.25Zm0,1.2a1.078,1.078,0,1,1-.764.316A1.08,1.08,0,0,1,5.61,3.45Zm1.92,4.3a2.863,2.863,0,0,1-3.84,0V7.612A1.248,1.248,0,0,1,4.89,6.33H6.33A1.25,1.25,0,0,1,7.53,7.6Z" transform="translate(-14133.272 20547.012)" fill="#053652"/>
  </g>
</svg>
