<svg xmlns="http://www.w3.org/2000/svg" width="31.5" height="29.25" viewBox="0 0 31.5 29.25">
  <g id="Auto_Investment" data-name="Auto Investment" transform="translate(-2.25 -2.25)">
    <path id="Path_42550" data-name="Path 42550" d="M21.375,27h4.5v4.5h-4.5Z" fill="#053652"/>
    <path id="Path_42551" data-name="Path 42551" d="M29.25,27h4.5v4.5h-4.5Z" fill="#053652"/>
    <path id="Path_42552" data-name="Path 42552" d="M21.375,19.125h4.5v4.5h-4.5Z" fill="#053652"/>
    <path id="Path_42553" data-name="Path 42553" d="M29.25,19.125h4.5v4.5h-4.5Z" fill="#053652"/>
    <path id="Path_42554" data-name="Path 42554" d="M19.125,27H4.5V11.25h27v5.625h2.25V11.25A2.252,2.252,0,0,0,31.5,9H24.75V4.5A2.252,2.252,0,0,0,22.5,2.25h-9A2.252,2.252,0,0,0,11.25,4.5V9H4.5a2.252,2.252,0,0,0-2.25,2.25V27A2.252,2.252,0,0,0,4.5,29.25H19.125ZM13.5,4.5h9V9h-9Z" fill="#053652"/>
  </g>
</svg>
