<svg xmlns="http://www.w3.org/2000/svg" width="36" height="27.893" viewBox="0 0 36 27.893">
  <path id="Borrower_Transactions" data-name="Borrower Transactions" d="M8.346,4.054l5.175,5.6-3.651,7.2,7.71-1.381,3.51,8.469L36,4.389ZM7.392,16.186l1.435-1.181-1.851.585-.189-.27.765-.742-1,.4A10.218,10.218,0,0,0,3.2,31.946a10.145,10.145,0,0,1-1.328-5.032,10.47,10.47,0,0,1,6.473-9.63l.473-1.149-1.125.5L7.376,16.2l.017-.017Zm6.546-2.955L16.335,9l14.1-3.3L13.938,13.232Z" transform="translate(0 -4.054)" fill="#053652"/>
</svg>
