<svg xmlns="http://www.w3.org/2000/svg" width="37.295" height="33.263" viewBox="0 0 37.295 33.263">
  <g id="Escrow_Account" data-name="Escrow Account" transform="translate(-15008.853 -11835.471)">
    <path id="Path_42052" data-name="Path 42052" d="M7.419,10.125H34.376a4.044,4.044,0,0,1,4.044,4.044V30.343a4.044,4.044,0,0,1-4.044,4.044H7.419a4.044,4.044,0,0,1-4.044-4.044V14.169A4.044,4.044,0,0,1,7.419,10.125Z" transform="translate(15006.603 11833.222)" fill="rgba(0,0,0,0)" stroke="#053652" stroke-linejoin="round" stroke-width="2.25"/>
    <path id="Path_42053" data-name="Path 42053" d="M33.986,11.239V8.712a4.213,4.213,0,0,0-5-4.137L6.8,8.363A4.213,4.213,0,0,0,3.375,12.5v4.127" transform="translate(15006.603 11832.107)" fill="rgba(0,0,0,0)" stroke="#053652" stroke-linejoin="round" stroke-width="2.25"/>
    <path id="Path_42054" data-name="Path 42054" d="M26.321,23.391a2.7,2.7,0,1,1,2.7-2.7A2.7,2.7,0,0,1,26.321,23.391Z" transform="translate(15010.614 11834.782)" fill="#053652"/>
  </g>
</svg>
