<svg xmlns="http://www.w3.org/2000/svg" width="44.898" height="39.682" viewBox="0 0 44.898 39.682">
  <path id="Home" d="M22.434,2.094a1.317,1.317,0,0,0-.932.393L.3,23.988a1.058,1.058,0,0,0,.756,1.8H4.995V40.894a.878.878,0,0,0,.879.879H20.743V34.883l-5.708-5.716a4.534,4.534,0,1,1,2.4-2.4l3.308,3.308V20.014a4.531,4.531,0,1,1,3.4,0V30.07l3.3-3.308a4.537,4.537,0,1,1,2.4,2.4l-5.705,5.716v6.889H39.011a.879.879,0,0,0,.879-.879V25.786h3.951a1.059,1.059,0,0,0,.756-1.8L39.89,19.174V11.59a.884.884,0,0,0-.879-.886H35.334a.883.883,0,0,0-.881.886v2.064L23.385,2.484a1.321,1.321,0,0,0-.95-.393Zm.007,11.9a1.816,1.816,0,1,0,1.813,1.818,1.815,1.815,0,0,0-1.813-1.818ZM13.264,23.18a1.811,1.811,0,1,0,1.281.53,1.811,1.811,0,0,0-1.281-.53Zm18.356,0a1.811,1.811,0,1,0,1.284.53,1.815,1.815,0,0,0-1.284-.53Z" transform="translate(0 -2.091)" fill="#053652"/>
</svg>
