<svg xmlns="http://www.w3.org/2000/svg" width="41.739" height="41.957" viewBox="0 0 41.739 41.957">
  <g id="Market_Place" data-name="Market Place" transform="translate(-15006.782 -11742)">
    <path id="Path_376" data-name="Path 376" d="M0,0H41.739V41.739H0Z" transform="translate(15006.782 11742.218)" fill="none"/>
    <path id="Subtraction_4" data-name="Subtraction 4" d="M12.25,19H1.75A1.74,1.74,0,0,1,0,17.273V3.454A3.481,3.481,0,0,1,3.5,0h7A3.481,3.481,0,0,1,14,3.454V17.273A1.74,1.74,0,0,1,12.25,19ZM3.5,3.455V15.547h7V3.455Z" transform="translate(15032 11758)" fill="#053652"/>
    <path id="Subtraction_5" data-name="Subtraction 5" d="M12.174,26.957H1.739A1.741,1.741,0,0,1,0,25.217V3.479A3.482,3.482,0,0,1,3.479,0h6.956a3.482,3.482,0,0,1,3.479,3.478V25.217A1.741,1.741,0,0,1,12.174,26.957ZM3.479,3.479v20h6.956v-20Z" transform="translate(15010.261 11750.044)" fill="#053652"/>
    <path id="Subtraction_3" data-name="Subtraction 3" d="M12.25,35H1.75A1.752,1.752,0,0,1,0,33.25V3.5A3.5,3.5,0,0,1,3.5,0h7A3.5,3.5,0,0,1,14,3.5V33.25A1.752,1.752,0,0,1,12.25,35ZM3.5,3.5v28h7V3.5Z" transform="translate(15020 11742)" fill="#053652"/>
  </g>
</svg>
