<svg xmlns="http://www.w3.org/2000/svg" width="34.782" height="26.087" viewBox="0 0 34.782 26.087">
  <g id="My_Earning" data-name="My Earning" transform="translate(-15010.261 -11933.521)">
    <path id="Path_42055" data-name="Path 42055" d="M30.511,6.674H2.25A2.174,2.174,0,0,1,4.424,4.5H30.511a2.174,2.174,0,0,1,2.174,2.174Z" transform="translate(15010.185 11929.021)" fill="#053652"/>
    <path id="Path_42056" data-name="Path 42056" d="M32.609,11.174H2.174V28.565H32.609ZM2.174,9A2.174,2.174,0,0,0,0,11.174V28.565a2.174,2.174,0,0,0,2.174,2.174H32.609a2.174,2.174,0,0,0,2.174-2.174V11.174A2.174,2.174,0,0,0,32.609,9Z" transform="translate(15010.261 11928.869)" fill="#053652" fill-rule="evenodd"/>
    <path id="Path_42057" data-name="Path 42057" d="M28.337,11.25A4.348,4.348,0,0,0,32.685,15.6V11.25ZM6.6,11.25A4.348,4.348,0,0,1,2.25,15.6V11.25ZM28.337,28.641a4.348,4.348,0,0,1,4.348-4.348v4.348Zm-21.739,0A4.348,4.348,0,0,0,2.25,24.293v4.348Zm15.217-8.7A4.348,4.348,0,1,1,17.467,15.6,4.348,4.348,0,0,1,21.815,19.946Z" transform="translate(15010.185 11928.793)" fill="#053652"/>
  </g>
</svg>
