<svg xmlns="http://www.w3.org/2000/svg" width="41.739" height="41.739" viewBox="0 0 41.739 41.739">
  <g id="My_Funds" data-name="My Funds" transform="translate(-15006.782 -11651.782)">
    <path id="Path_372" data-name="Path 372" d="M0,0H41.739V41.739H0Z" transform="translate(15006.782 11651.782)" fill="none"/>
    <path id="Path_41686" data-name="Path 41686" d="M34.959,40.621H31.591a.591.591,0,1,1,0-1.182h3.368a3.84,3.84,0,0,0,3.374-2.009.591.591,0,1,1,1.064.508A5,5,0,0,1,34.959,40.621Z" transform="translate(14998.027 11643.926)" fill="#053652"/>
    <path id="Path_42042" data-name="Path 42042" d="M100.128,50.225a11.948,11.948,0,0,0-5.257,1.1,4.012,4.012,0,0,0-2.469,2.9V66.439c0,1.368,1.062,2.431,2.461,3.131a11.96,11.96,0,0,0,5.265,1.106,12.708,12.708,0,0,0,4.455-.756,7.476,7.476,0,1,0,3.271-14.2c.011-.7-.008-1-.008-1.5a4.172,4.172,0,0,0-2.461-2.9,11.944,11.944,0,0,0-5.257-1.1Zm0,1.511a10.675,10.675,0,0,1,4.61.95c.989.495,1.5,1.08,1.612,1.581.1.894-.866,1.622-1.612,1.994a11.66,11.66,0,0,1-9.221,0c-.772-.482-1.626-.927-1.62-1.924.077-.516.584-1.133,1.62-1.651a10.675,10.675,0,0,1,4.61-.95Zm-6.23,5.3a6.6,6.6,0,0,0,.973.592,11.95,11.95,0,0,0,5.257,1.1,14.074,14.074,0,0,0,1.846-.125,7.478,7.478,0,0,0-.95,1.581c-.291.021-.592.031-.9.031a10.675,10.675,0,0,1-4.6-.942c-1.127-.563-1.628-1.24-1.628-1.8Zm13.956.187a5.981,5.981,0,1,1-5.981,5.981A5.97,5.97,0,0,1,107.854,57.218ZM93.9,60.014a6.562,6.562,0,0,0,.958.584,11.993,11.993,0,0,0,5.273,1.106c.137,0,.27,0,.4-.008a7.465,7.465,0,0,0-.156,1.5c-.083,0-.166,0-.249,0a10.675,10.675,0,0,1-4.6-.942c-1.127-.563-1.628-1.24-1.628-1.8Zm0,2.99a6.589,6.589,0,0,0,.966.584,11.957,11.957,0,0,0,5.265,1.106c.136,0,.271,0,.405-.008a7.405,7.405,0,0,0,.459,1.472c-.282.02-.572.031-.864.031a10.674,10.674,0,0,1-4.6-.942c-1.127-.563-1.628-1.24-1.628-1.8Zm0,2.99a6.558,6.558,0,0,0,.958.584,11.993,11.993,0,0,0,5.273,1.106,14.128,14.128,0,0,0,1.674-.1,7.532,7.532,0,0,0,1.176,1.269,12.31,12.31,0,0,1-2.85.327,10.633,10.633,0,0,1-4.595-.95C94.406,67.667,93.9,67,93.9,66.439Z" transform="translate(14925.599 11605.036)" fill="#053652"/>
    <path id="inr" d="M4,1.524v.454a.137.137,0,0,1-.143.143H3.11a1.665,1.665,0,0,1-.575,1.043,2.26,2.26,0,0,1-1.23.49q.744.793,2.045,2.388a.122.122,0,0,1,.018.151.129.129,0,0,1-.129.08H2.37a.131.131,0,0,1-.111-.053Q.9,4.585.04,3.676a.133.133,0,0,1-.04-.1V3.012a.137.137,0,0,1,.042-.1.137.137,0,0,1,.1-.042h.5a2.011,2.011,0,0,0,.947-.192.871.871,0,0,0,.457-.557H.143A.137.137,0,0,1,0,1.978V1.524a.137.137,0,0,1,.143-.143h1.84Q1.729.878.789.878H.143a.137.137,0,0,1-.1-.042A.137.137,0,0,1,0,.735V.143A.137.137,0,0,1,.143,0H3.85a.137.137,0,0,1,.143.143V.6A.137.137,0,0,1,3.85.74H2.811a1.54,1.54,0,0,1,.285.642h.762A.137.137,0,0,1,4,1.524Z" transform="translate(15031.385 11665.486)" fill="#053652"/>
    <path id="Path_41685" data-name="Path 41685" d="M18.977,43.5H11.84l.284-.792c.089-.242.183-.5.278-.75l.083-.219c.526-1.4,1.182-3.143,1.459-3.675.449-.957,1.879-1.719,3.545-2.606.414-.219.833-.443,1.247-.679,1.968-1.111,4.461-.26,5.524.1l.254.089A3.758,3.758,0,0,0,25.8,35.1a9.373,9.373,0,0,1,4.384-.945,1.678,1.678,0,0,1,1.253.691,1.6,1.6,0,0,1,.248.591c1.773-.591,3.929-1.247,4.928-1.058a1.406,1.406,0,0,1,1.306,1.182c.065.715-.52,1.406-1.477,1.773h0c-.591.219-2.724,1.359-4.6,2.363a48.078,48.078,0,0,1-4.449,2.239,25.693,25.693,0,0,1-5.028-.077,13.855,13.855,0,0,0-2.363.065,2.363,2.363,0,0,0-.124.225,3.782,3.782,0,0,0-.219.526c-.047.142-.089.272-.13.408L19.4,43.5Zm-5.453-1.182h5.022v-.047a4.891,4.891,0,0,1,.284-.685,2.535,2.535,0,0,1,.461-.668l.142-.142h.195a15.493,15.493,0,0,1,2.807-.095,25.7,25.7,0,0,0,4.65.106c.349-.1,2.476-1.241,4.189-2.157C33.37,37.513,35.35,36.449,36,36.2h0c.532-.2.715-.479.715-.555a.975.975,0,0,0-.343-.118,14.207,14.207,0,0,0-4.6,1.111l-.337.124-.207.071L30.517,37v-.916a.851.851,0,0,0-.053-.591.591.591,0,0,0-.425-.183,8.8,8.8,0,0,0-3.9.9l-.154.041a5.017,5.017,0,0,1-1.849-.16L23.852,36c-.916-.313-3.055-1.04-4.561-.189-.419.236-.851.467-1.27.691-1.282.685-2.742,1.465-3.025,2.068-.2.419-.8,1.926-1.424,3.586Z" transform="translate(15005.866 11645.126)" fill="#053652"/>
    <path id="Path_41687" data-name="Path 41687" d="M17.394,51.545h-8.2A1.146,1.146,0,0,1,8.224,51a1.182,1.182,0,0,1-.071-1.182L8.7,48.638A1.182,1.182,0,0,1,9.719,48h8.225a1.146,1.146,0,0,1,.969.544,1.182,1.182,0,0,1,.071,1.182l-.549,1.182A1.146,1.146,0,0,1,17.394,51.545ZM9.743,49.182l-.549,1.182h8.2l.526-1.146Z" transform="translate(15007.426 11639.448)" fill="#053652"/>
  </g>
</svg>
