<svg xmlns="http://www.w3.org/2000/svg" width="33.305" height="33.305" viewBox="0 0 33.305 33.305">
  <g id="Settings" transform="translate(-15011 -12289.043)">
    <path id="Path_387" data-name="Path 387" d="M15.739,5.29a3,3,0,0,1,5.826,0A3,3,0,0,0,26.04,7.144a3,3,0,0,1,4.122,4.122,3,3,0,0,0,1.852,4.473,3,3,0,0,1,0,5.826A3,3,0,0,0,30.16,26.04a3,3,0,0,1-4.122,4.122,3,3,0,0,0-4.473,1.852,3,3,0,0,1-5.826,0,3,3,0,0,0-4.475-1.854,3,3,0,0,1-4.122-4.122A3,3,0,0,0,5.29,21.565a3,3,0,0,1,0-5.826,3,3,0,0,0,1.854-4.475,3,3,0,0,1,4.122-4.122A3,3,0,0,0,15.739,5.29Z" transform="translate(15009 12287.043)" fill="none" stroke="#053652" stroke-linecap="round" stroke-linejoin="round" stroke-width="2"/>
    <ellipse id="Ellipse_2" data-name="Ellipse 2" cx="5.5" cy="5" rx="5.5" ry="5" transform="translate(15022 12301)" fill="none" stroke="#053652" stroke-linecap="round" stroke-linejoin="round" stroke-width="2"/>
  </g>
</svg>
