<svg xmlns="http://www.w3.org/2000/svg" width="23.314" height="27.201" viewBox="0 0 23.314 27.201">
  <g id="View_Loan_Request" data-name="View Loan Request" transform="translate(-6.75 -2.25)">
    <path id="Path_42159" data-name="Path 42159" d="M26.386,26.693a1.943,1.943,0,1,1-1.943-1.943A1.943,1.943,0,0,1,26.386,26.693Z" transform="translate(-2.15 -3.071)" fill="#053652"/>
    <path id="Path_42160" data-name="Path 42160" d="M31.077,25.573a8.393,8.393,0,0,0-7.555-5.323,8.393,8.393,0,0,0-7.555,5.323l-.217.506.217.506a8.393,8.393,0,0,0,7.555,5.323,8.393,8.393,0,0,0,7.555-5.323l.217-.506Zm-7.555,4.392a3.886,3.886,0,1,1,3.886-3.886,3.886,3.886,0,0,1-3.886,3.886Z" transform="translate(-1.228 -2.457)" fill="#053652"/>
    <path id="Path_42161" data-name="Path 42161" d="M12.579,27.508H8.693V4.193h7.772v5.829a1.949,1.949,0,0,0,1.943,1.943h5.829V15.85h1.943V10.022a.884.884,0,0,0-.291-.68l-6.8-6.8a.883.883,0,0,0-.68-.292H8.693A1.949,1.949,0,0,0,6.75,4.193V27.508a1.949,1.949,0,0,0,1.943,1.943h3.886ZM18.408,4.581l5.44,5.44h-5.44Z" fill="#053652"/>
  </g>
</svg>
