<svg xmlns="http://www.w3.org/2000/svg" width="22.18" height="18.614" viewBox="0 0 22.18 18.614">
  <g id="View_All_Loans" data-name="View All Loans" transform="translate(-1.5 -5.5)">
    <path id="Path_42154" data-name="Path 42154" d="M13.387,30.065h-2.71A.677.677,0,0,1,10,29.387v-2.71A.677.677,0,0,1,10.677,26h2.71a.677.677,0,0,1,.677.677v2.71A.677.677,0,0,1,13.387,30.065ZM11.355,28.71H12.71V27.355H11.355Z" transform="translate(-2.58 -6.451)" fill="#053652" stroke="#053652" stroke-width="1"/>
    <path id="Path_42155" data-name="Path 42155" d="M10.807,12.775H8.1a.677.677,0,0,0-.677.677v.813H4.574v-4.2h.813a.677.677,0,0,0,.677-.677V6.677A.677.677,0,0,0,5.387,6H2.677A.677.677,0,0,0,2,6.677v2.71a.677.677,0,0,0,.677.677H3.49V22.124H7.8a.542.542,0,1,0,0-1.084H4.574V15.349H7.42v.813a.677.677,0,0,0,.677.677h2.71a.677.677,0,0,0,.677-.677v-2.71A.677.677,0,0,0,10.807,12.775ZM3.355,7.355H4.71V8.71H3.355Zm6.775,8.13H8.775V14.13H10.13Z" fill="#053652" stroke="#053652" stroke-width="1"/>
    <path id="Path_42156" data-name="Path 42156" d="M26.259,8.677A.677.677,0,0,0,25.582,8H10V9.355H25.582A.677.677,0,0,0,26.259,8.677Z" transform="translate(-2.58 -0.645)" fill="#053652"/>
    <path id="Path_42157" data-name="Path 42157" d="M28.162,18H18v1.355H28.162a.677.677,0,1,0,0-1.355Z" transform="translate(-5.16 -3.87)" fill="#053652"/>
    <path id="Path_42158" data-name="Path 42158" d="M28.162,28H18v1.355H28.162a.677.677,0,1,0,0-1.355Z" transform="translate(-5.16 -7.096)" fill="#053652"/>
  </g>
</svg>
