<svg xmlns="http://www.w3.org/2000/svg" width="35.418" height="32.225" viewBox="0 0 35.418 32.225">
  <g id="Evaluator_Preferences" data-name="Evaluator Preferences" transform="translate(13288.314 -14825.594)">
    <path id="Path_42624" data-name="Path 42624" d="M104.012,26.25H73.6A2.508,2.508,0,0,0,71.1,28.759V50.626A2.509,2.509,0,0,0,73.6,53.132h10.29l-.875,3.953H81.447a.695.695,0,0,0,0,1.389H96.17a.695.695,0,0,0,0-1.389H94.6l-.875-3.947h10.29a2.509,2.509,0,0,0,2.506-2.511V28.759a2.508,2.508,0,0,0-2.506-2.509ZM73.6,27.639h30.407a1.118,1.118,0,0,1,1.117,1.12V47.039H72.488V28.759a1.118,1.118,0,0,1,1.117-1.12Zm19.57,29.446H84.442l.876-3.947H92.3Zm10.837-5.336H73.6a1.118,1.118,0,0,1-1.117-1.122v-2.2h32.64v2.2a1.118,1.118,0,0,1-1.117,1.12Z" transform="translate(-13359.413 14799.344)" fill="#053652"/>
    <path id="settingsandroid" d="M16.189,8.1H10.8a.8.8,0,0,1-.32.633A1.146,1.146,0,0,1,9.718,9H7.561a1.138,1.138,0,0,1-.767-.267A.809.809,0,0,1,6.482,8.1H1.09a1.138,1.138,0,0,1-.767-.267.816.816,0,0,1-.312-.64.8.8,0,0,1,.312-.633A1.159,1.159,0,0,1,1.09,6.3H6.482a.8.8,0,0,1,.312-.64,1.157,1.157,0,0,1,.767-.26H9.718a1.157,1.157,0,0,1,.767.26.8.8,0,0,1,.312.64h5.393a1.157,1.157,0,0,1,.767.26.8.8,0,0,1,.312.633.817.817,0,0,1-.312.64,1.135,1.135,0,0,1-.767.267ZM9.718,6.3H7.56V8.1H9.718V6.3Zm6.471-3.6H15.11a.8.8,0,0,1-.32.633,1.146,1.146,0,0,1-.758.267H11.875a1.138,1.138,0,0,1-.767-.267A.809.809,0,0,1,10.8,2.7H1.09a1.138,1.138,0,0,1-.767-.267.816.816,0,0,1-.312-.64A.8.8,0,0,1,.323,1.16,1.159,1.159,0,0,1,1.09.9H10.8a.8.8,0,0,1,.312-.64A1.157,1.157,0,0,1,11.875,0h2.157A1.157,1.157,0,0,1,14.8.26a.8.8,0,0,1,.312.64h1.079a1.157,1.157,0,0,1,.767.26.8.8,0,0,1,.312.633.817.817,0,0,1-.312.64,1.135,1.135,0,0,1-.767.267ZM14.032.9H11.874V2.7h2.157V.9ZM1.089,11.7H2.168a.8.8,0,0,1,.312-.64,1.157,1.157,0,0,1,.767-.26H5.4a1.164,1.164,0,0,1,.758.26.8.8,0,0,1,.32.64h9.707a1.157,1.157,0,0,1,.767.26.8.8,0,0,1,.312.633.809.809,0,0,1-.32.64,1.143,1.143,0,0,1-.758.267H6.482a.8.8,0,0,1-.32.64,1.164,1.164,0,0,1-.758.26H3.247a1.138,1.138,0,0,1-.767-.267.809.809,0,0,1-.312-.633H1.09a1.138,1.138,0,0,1-.767-.267.816.816,0,0,1-.312-.64.8.8,0,0,1,.312-.633,1.159,1.159,0,0,1,.767-.26Zm2.157,1.8H5.4V11.7H3.246Z" transform="translate(-13279.244 14829.346)" fill="#053652"/>
  </g>
</svg>
