<svg xmlns="http://www.w3.org/2000/svg" width="24.214" height="33.9" viewBox="0 0 24.214 33.9">
  <g id="Evaluator_Reference" data-name="Evaluator Reference" transform="translate(-6.75 -2.25)">
    <path id="Path_42161" data-name="Path 42161" d="M14.014,33.727H9.171V4.671h9.685v7.264a2.429,2.429,0,0,0,2.421,2.421h7.264V19.2h2.421V11.935a1.1,1.1,0,0,0-.363-.847L22.126,2.614a1.1,1.1,0,0,0-.848-.364H9.171A2.429,2.429,0,0,0,6.75,4.671V33.727a2.429,2.429,0,0,0,2.421,2.421h4.843ZM21.278,5.156l6.78,6.78h-6.78Z" fill="#053652"/>
    <g id="Group_1906" data-name="Group 1906" transform="translate(14.877 20.464)">
      <path id="Path_42736" data-name="Path 42736" d="M8.938,16.138H8.421a5.149,5.149,0,0,0-3.818,1.5L4.46,17.8v4.917H6.883V19.926l.327-.368.148-.172a6.532,6.532,0,0,1,2.8-1.7,3.913,3.913,0,0,1-1.217-1.55Z" transform="translate(-4.46 -9.366)" fill="#053652"/>
      <path id="Path_42737" data-name="Path 42737" d="M27.473,17.6a5.149,5.149,0,0,0-3.818-1.5,6.217,6.217,0,0,0-.647.036A3.913,3.913,0,0,1,21.82,17.6a6.479,6.479,0,0,1,2.969,1.782l.148.166.321.368v2.8H27.6V17.77Z" transform="translate(-11.511 -9.354)" fill="#053652"/>
      <path id="Path_42738" data-name="Path 42738" d="M9.438,10.884h.184a3.83,3.83,0,0,1,1.847-3.735,2.429,2.429,0,1,0-2.031,3.759Z" transform="translate(-5.495 -5.27)" fill="#053652"/>
      <path id="Path_42739" data-name="Path 42739" d="M15.121,20.3A5.754,5.754,0,0,0,10.9,21.9l-.148.166v3.759a.932.932,0,0,0,.95.915h6.823a.932.932,0,0,0,.95-.915V22.078l-.143-.178A5.689,5.689,0,0,0,15.121,20.3Z" transform="translate(-7.015 -11.055)" fill="#053652"/>
      <path id="Path_42740" data-name="Path 42740" d="M15.969,14.295a2.648,2.648,0,0,0,2.375-1.508,2.179,2.179,0,0,1-1.7-3.26l.208-.362A2.625,2.625,0,0,0,15.969,9a2.654,2.654,0,1,0,0,5.3Z" transform="translate(-8.005 -6.466)" fill="#053652"/>
      <path id="Path_42744" data-name="Path 42744" d="M25.686,10.5h1.686v1.686h1.686v1.686H27.371v1.686H25.686V13.871H24V12.186h1.686Z" transform="translate(-14.069 -10.5)" fill="#053652"/>
    </g>
  </g>
</svg>
