<svg xmlns="http://www.w3.org/2000/svg" width="30.811" height="33.063" viewBox="0 0 30.811 33.063">
  <g id="Loan_Evaluation" data-name="Loan Evaluation" transform="translate(-7122 -17065.41)">
    <path id="Path_42775" data-name="Path 42775" d="M30.358,13.665a7.6,7.6,0,0,1-6.431-3.551H11.4V8.086a1.014,1.014,0,0,1,1.014-1.014H15.9v-.7a2.348,2.348,0,0,1,4.7,0v.7h2.221a7.281,7.281,0,0,1,0-2.029h-.406A4.514,4.514,0,0,0,18.247,2a4.524,4.524,0,0,0-4.118,3.043h-7.1A1.775,1.775,0,0,0,5,6.757V32.744a1.724,1.724,0,0,0,1.734,1.714h22.9a1.724,1.724,0,0,0,1.734-1.714V13.594A7.628,7.628,0,0,1,30.358,13.665ZM25.286,28.372h-14.2V26.344h14.2Zm0-4.057h-14.2V22.286h14.2Zm0-4.057h-14.2V18.229h14.2Zm0-4.057h-14.2V14.172h14.2Z" transform="translate(7117 17064.014)" fill="#053652"/>
    <path id="checkmark-circled" d="M7.7,2.25A5.453,5.453,0,1,0,13.155,7.7,5.453,5.453,0,0,0,7.7,2.25Zm2.8,3.63L7.113,10.224c-.027.027-.071.085-.124.085a.18.18,0,0,1-.124-.071c-.032-.032-1.921-1.848-1.921-1.848l-.036-.036a.127.127,0,0,1,0-.156.317.317,0,0,0,.027-.029c.187-.2.567-.6.592-.621s.059-.073.117-.073.1.051.129.08,1.1,1.054,1.1,1.054L9.577,5.13A.139.139,0,0,1,9.662,5.1a.137.137,0,0,1,.085.032l.745.587a.137.137,0,0,1,.032.085.127.127,0,0,1-.024.08Z" transform="translate(7139.655 17063.16)" fill="#053652"/>
  </g>
</svg>
