<svg xmlns="http://www.w3.org/2000/svg" width="109.255" height="108.574" viewBox="0 0 109.255 108.574">
  <g id="Group_1500" data-name="Group 1500" transform="translate(-1250 1357)">
    <path id="Path_277" data-name="Path 277" d="M23.83,8.81a54.64,54.64,0,1,0,85.43,46.93A51.57,51.57,0,1,1,23.83,8.81Z" transform="translate(1249.995 -1356.999)" fill="#6cf" fill-rule="evenodd"/>
    <path id="Path_278" data-name="Path 278" d="M84.89,84.19A46.11,46.11,0,1,0,12.8,44.6,43.51,43.51,0,1,1,84.89,84.19Z" transform="translate(1249.995 -1356.999)" fill="#0079bf" fill-rule="evenodd"/>
    <path id="Path_279" data-name="Path 279" d="M45,55.45H29.2a3.59,3.59,0,0,0-3.61-3.61V35.15a3.59,3.59,0,0,0,3.61-3.61H45.28V28.86H22.81V58.13H44.45Z" transform="translate(1249.995 -1356.999)" fill="#0079bf" fill-rule="evenodd"/>
    <path id="Path_280" data-name="Path 280" d="M63,31.54H79.17a3.51,3.51,0,0,0,3.51,3.61V51.84a3.51,3.51,0,0,0-3.51,3.61H63v2.68H85.47V28.86H63Z" transform="translate(1249.995 -1356.999)" fill="#0079bf" fill-rule="evenodd"/>
    <path id="Path_281" data-name="Path 281" d="M34.25,43.49h0a4,4,0,1,0,4-4,4.08,4.08,0,0,0-4,4Z" transform="translate(1249.995 -1356.999)" fill="#6ec9f1" fill-rule="evenodd"/>
    <path id="Path_282" data-name="Path 282" d="M74.13,43.49h0a4.07,4.07,0,1,0-4.07,4.07A4.07,4.07,0,0,0,74.13,43.49Z" transform="translate(1249.995 -1356.999)" fill="#6ec9f1" fill-rule="evenodd"/>
    <path id="Path_283" data-name="Path 283" d="M46.81,28.25H61.55V58.74H46.81V28.25Z" transform="translate(1249.995 -1356.999)" fill="#0079bf" fill-rule="evenodd"/>
    <path id="Path_284" data-name="Path 284" d="M92.67,65.76c-.55-1.42-2.84-2.29-5.45-2.07a14.35,14.35,0,0,0-2.07.54c-3.17.88-19.41,6.54-19.63,6.65l-.33.11.22.22c1.85,1.53,2.73,3.16,2.29,4.47-.54,2.07-3.16,3.27-7.63,3.6a55.61,55.61,0,0,1-14.5-1.09,13.06,13.06,0,0,1,2.07.11c4.14,0,8.07,0,11.13-.23,4.68-.43,6.86-1.52,7.19-3.27.11-1.2-.55-2.18-2.18-2.94-1.85-.87-5.45-1.3-9.05-2a55.418,55.418,0,0,1-6.22-1.08c-5.66-1.53-11.55-2.95-18.2-2.51-1.09.21-2.18.32-3.16.54A140.761,140.761,0,0,0,11.56,70.4l-.66.12,7.85,11.22A29.86,29.86,0,0,1,23,81.13a20.06,20.06,0,0,1,5.22.11c2.3.33,7.64,1.42,12.87,2.51s10.47,2.18,12.42,2.39a11,11,0,0,0,3.39.11c2.51-.22,5.24-1.63,7.84-2.94.77-.55,1.65-1,2.3-1.42L90.38,69.36C92.99,67.83,92.99,66.36,92.67,65.76Z" transform="translate(1249.995 -1356.999)" fill="#6cf" fill-rule="evenodd"/>
    <path id="inr" d="M57.06,50.11a.25.25,0,0,1-.24.15H55.17a.28.28,0,0,1-.21-.1c-1.73-2.07-3.13-3.68-4.22-4.83a.26.26,0,0,1-.07-.19V44.06a.24.24,0,0,1,.08-.19.27.27,0,0,1,.19-.08h1a3.69,3.69,0,0,0,1.79-.36,1.65,1.65,0,0,0,.87-1.06H50.94a.25.25,0,0,1-.27-.25v-.88a.25.25,0,0,1,.25-.27h3.51c-.32-.64-1.07-1-2.27-1H50.94a.27.27,0,0,1-.19-.08.24.24,0,0,1-.08-.19V38.61a.26.26,0,0,1,.25-.27H58a.27.27,0,0,1,.27.25v.89a.26.26,0,0,1-.25.27H56A3,3,0,0,1,56.55,41H58a.26.26,0,0,1,.27.25v.88a.27.27,0,0,1-.25.27H56.57a3.1,3.1,0,0,1-1.09,2,4.26,4.26,0,0,1-2.34.93" transform="translate(1249.995 -1356.999)" fill="#fff"/>
  </g>
</svg>
